<svg id="visual" viewBox="0 0 900 600" width="900" height="600" xmlns="http://www.w3.org/2000/svg" xmlns:xlink="http://www.w3.org/1999/xlink" version="1.1"><rect x="0" y="0" width="900" height="600" fill="#001220"></rect><defs><linearGradient id="grad1_0" x1="33.3%" y1="0%" x2="100%" y2="100%"><stop offset="20%" stop-color="#001220" stop-opacity="1"></stop><stop offset="80%" stop-color="#001220" stop-opacity="1"></stop></linearGradient></defs><defs><linearGradient id="grad2_0" x1="0%" y1="0%" x2="66.7%" y2="100%"><stop offset="20%" stop-color="#001220" stop-opacity="1"></stop><stop offset="80%" stop-color="#001220" stop-opacity="1"></stop></linearGradient></defs><g transform="translate(900, 0)"><path d="M0 486.7C-51.4 447.1 -102.8 407.4 -160 386.2C-217.2 364.9 -280.2 362 -332.3 332.3C-384.5 302.6 -425.8 246.1 -449.7 186.3C-473.6 126.4 -480.2 63.2 -486.7 0L0 0Z" fill="#FBAE3C"></path></g><g transform="translate(0, 600)"><path d="M0 -486.7C66.5 -483.2 133 -479.7 186.3 -449.7C239.5 -419.7 279.6 -363.4 312.5 -312.5C345.5 -261.7 371.3 -216.5 399.1 -165.3C427 -114.2 456.9 -57.1 486.7 0L0 0Z" fill="#FBAE3C"></path></g></svg>